<svg width="45" height="69" viewBox="0 0 45 69" fill="none" xmlns="http://www.w3.org/2000/svg">
<circle cx="22.5" cy="46.5" r="22.5" fill="#CF041B"/>
<path d="M23 0L37 19L22.9999 16.0272L9 19L23 0Z" fill="#CF041B"/>
<path d="M23 46.8653L26.9673 50.8327C27.0814 50.9467 27.2216 51.0079 27.3878 51.016C27.554 51.0241 27.7023 50.963 27.8327 50.8327C27.963 50.7023 28.0282 50.5581 28.0282 50.4C28.0282 50.2419 27.963 50.0977 27.8327 49.9673L23.8653 46L27.8327 42.0327C27.9467 41.9186 28.0079 41.7784 28.016 41.6122C28.0241 41.446 27.963 41.2977 27.8327 41.1673C27.7023 41.037 27.5581 40.9718 27.4 40.9718C27.2419 40.9718 27.0977 41.037 26.9673 41.1673L23 45.1347L19.0327 41.1673C18.9186 41.0533 18.7784 40.9921 18.6122 40.984C18.446 40.9759 18.2977 41.037 18.1673 41.1673C18.037 41.2977 17.9718 41.4419 17.9718 41.6C17.9718 41.7581 18.037 41.9023 18.1673 42.0327L22.1347 46L18.1673 49.9673C18.0533 50.0814 17.9921 50.2216 17.984 50.3878C17.9759 50.554 18.037 50.7023 18.1673 50.8327C18.2977 50.963 18.4419 51.0282 18.6 51.0282C18.7581 51.0282 18.9023 50.963 19.0327 50.8327L23 46.8653ZM23.0037 57C21.4832 57 20.0532 56.7116 18.7137 56.1347C17.3749 55.557 16.2101 54.7731 15.2193 53.7831C14.2285 52.7939 13.4443 51.6304 12.8666 50.2924C12.2889 48.9545 12 47.5249 12 46.0037C12 44.4832 12.2884 43.0532 12.8653 41.7137C13.443 40.3749 14.2269 39.2101 15.2169 38.2193C16.2061 37.2285 17.3696 36.4443 18.7076 35.8666C20.0455 35.2889 21.4751 35 22.9963 35C24.5168 35 25.9468 35.2884 27.2863 35.8653C28.6251 36.443 29.7899 37.2269 30.7807 38.2169C31.7715 39.2061 32.5557 40.3696 33.1334 41.7076C33.7111 43.0455 34 44.4751 34 45.9963C34 47.5168 33.7116 48.9468 33.1347 50.2863C32.557 51.6251 31.7731 52.7899 30.7831 53.7807C29.7939 54.7715 28.6304 55.5557 27.2924 56.1334C25.9545 56.7111 24.5249 57 23.0037 57Z" fill="white"/>
</svg>
