<svg width="30" height="30" viewBox="0 0 30 30" fill="none" xmlns="http://www.w3.org/2000/svg">
<path fill-rule="evenodd" clip-rule="evenodd" d="M3.21429 1.60714C3.21429 1.1809 3.04496 0.772119 2.74356 0.470721C2.44217 0.169323 2.03338 0 1.60714 0C1.1809 0 0.772119 0.169323 0.470721 0.470721C0.169323 0.772119 6.35148e-09 1.1809 0 1.60714V27.7586C0 28.6457 0.72 29.3657 1.60714 29.3657H27.7586C28.1848 29.3657 28.5936 29.1964 28.895 28.895C29.1964 28.5936 29.3657 28.1848 29.3657 27.7586C29.3657 27.3323 29.1964 26.9235 28.895 26.6221C28.5936 26.3208 28.1848 26.1514 27.7586 26.1514H3.21214L3.21429 1.60714ZM21.7436 4.89214C21.5097 4.7254 21.2448 4.60736 20.9644 4.54503C20.6841 4.48271 20.3941 4.47737 20.1116 4.52935C19.8292 4.58132 19.5601 4.68954 19.3203 4.84757C19.0805 5.00561 18.8749 5.21023 18.7157 5.44929L12.12 15.3407L8.94 12.1607C8.74091 11.9615 8.50452 11.8034 8.24434 11.6955C7.98416 11.5877 7.70527 11.5321 7.42361 11.532C7.14195 11.5319 6.86303 11.5873 6.60277 11.695C6.34252 11.8026 6.10602 11.9605 5.90679 12.1596C5.70755 12.3587 5.54948 12.5951 5.4416 12.8553C5.33373 13.1155 5.27815 13.3944 5.27805 13.676C5.27795 13.9577 5.33333 14.2366 5.44102 14.4969C5.54872 14.7571 5.70662 14.9936 5.90571 15.1929L10.935 20.22C11.1591 20.4446 11.4303 20.6165 11.729 20.7235C12.0277 20.8305 12.3464 20.8699 12.6621 20.8387C12.9779 20.8075 13.2827 20.7067 13.5548 20.5433C13.8268 20.38 14.0591 20.1583 14.235 19.8943L21.0514 9.66643L26.2929 13.41C26.7555 13.7402 27.3303 13.8731 27.8909 13.7795C28.4515 13.6858 28.9519 13.3733 29.2821 12.9107C29.6123 12.4481 29.7452 11.8733 29.6516 11.3127C29.558 10.7521 29.2455 10.2516 28.7829 9.92143L21.7436 4.89214Z" fill="url(#paint0_radial_416_1137)"/>
<defs>
<radialGradient id="paint0_radial_416_1137" cx="0" cy="0" r="1" gradientUnits="userSpaceOnUse" gradientTransform="translate(1.9134e-08 3.91543) rotate(48.5973) scale(40.8901 77.3116)">
<stop stop-color="#F156FF"/>
<stop offset="0.450429" stop-color="#3935E3"/>
<stop offset="0.78173" stop-color="#EC7837"/>
</radialGradient>
</defs>
</svg>
