<svg width="45" height="69" viewBox="0 0 45 69" fill="none" xmlns="http://www.w3.org/2000/svg">
<circle cx="22.5" cy="46.5" r="22.5" fill="#25A441"/>
<path d="M23 0L37 19L22.9999 16.0272L9 19L23 0Z" fill="#25A441"/>
<path d="M26.376 34.4223C26.2593 34.292 26.1185 34.1874 25.9621 34.1149C25.8057 34.0423 25.6369 34.0034 25.4657 34.0002C25.2945 33.9971 25.1244 34.0298 24.9657 34.0966C24.8069 34.1633 24.6627 34.2626 24.5416 34.3886C24.4206 34.5146 24.3251 34.6647 24.261 34.83C24.1969 34.9952 24.1654 35.1722 24.1684 35.3503C24.1714 35.5285 24.2089 35.7042 24.2786 35.867C24.3483 36.0297 24.4487 36.1762 24.574 36.2977L26.648 38.4562H15.275C14.9368 38.4562 14.6125 38.596 14.3734 38.8448C14.1343 39.0937 14 39.4312 14 39.7831C14 40.135 14.1343 40.4725 14.3734 40.7214C14.6125 40.9702 14.9368 41.11 15.275 41.11H26.648L24.574 43.2685C24.3488 43.52 24.2262 43.8527 24.232 44.1965C24.2378 44.5402 24.3716 44.8682 24.6052 45.1114C24.8388 45.3545 25.154 45.4937 25.4843 45.4998C25.8146 45.5059 26.1343 45.3783 26.376 45.1439L30.626 40.7208C30.8648 40.472 30.9989 40.1347 30.9989 39.7831C30.9989 39.4315 30.8648 39.0942 30.626 38.8454L26.376 34.4223ZM20.426 47.7977C20.6512 47.5462 20.7738 47.2135 20.768 46.8697C20.7622 46.5259 20.6284 46.198 20.3948 45.9548C20.1612 45.7117 19.846 45.5725 19.5157 45.5664C19.1854 45.5603 18.8657 45.6879 18.624 45.9223L14.374 50.3454C14.1352 50.5942 14.0011 50.9315 14.0011 51.2831C14.0011 51.6347 14.1352 51.972 14.374 52.2208L18.624 56.6439C18.8657 56.8783 19.1854 57.0059 19.5157 56.9998C19.846 56.9937 20.1612 56.8545 20.3948 56.6114C20.6284 56.3682 20.7622 56.0402 20.768 55.6965C20.7738 55.3527 20.6512 55.02 20.426 54.7685L18.352 52.61H29.725C30.0632 52.61 30.3875 52.4702 30.6266 52.2214C30.8657 51.9725 31 51.635 31 51.2831C31 50.9312 30.8657 50.5937 30.6266 50.3448C30.3875 50.096 30.0632 49.9562 29.725 49.9562H18.352L20.426 47.7977Z" fill="white"/>
</svg>
