<svg width="45" height="69" viewBox="0 0 45 69" fill="none" xmlns="http://www.w3.org/2000/svg">
<circle cx="22.5" cy="46.5" r="22.5" fill="#FFAE1B"/>
<path d="M23 0L37 19L22.9999 16.0272L9 19L23 0Z" fill="#FFAE1B"/>
<path d="M24.6667 56.7273L24.6667 47.2386C25.9336 46.7705 27.0309 45.9015 27.8071 44.7515C28.5832 43.6015 29 42.2272 29 40.8182C29 37.0568 26.0858 34 22.5 34C18.9142 34 16 37.0568 16 40.8182C16 42.2272 16.4168 43.6015 17.1929 44.7515C17.9691 45.9015 19.0664 46.7705 20.3333 47.2386L20.3333 47.6364L18.1667 49.9091L20.3333 52.1818L18.1667 54.4545L22.5433 59L24.6667 56.7273ZM19.25 40.8182C19.25 38.9432 20.7125 37.4091 22.5 37.4091C24.2875 37.4091 25.75 38.9432 25.75 40.8182C25.75 42.6932 24.2875 44.2273 22.5 44.2273C20.7125 44.2273 19.25 42.6932 19.25 40.8182Z" fill="white"/>
</svg>
